# xmcd CD database file generated by Grip 2.96
# 
# Track frame offsets:
#       183
#       17030
#       31483
#       43948
#       53690
#       70160
#       84183
#       98825
#       112348
#       126915
#       141013
#       158248
#       171300
#       184518
#       194485
#       207968
# 
# Disc length: 3003 seconds
# 
# Revision: 0
# Processed by: cddbd v1.4PL0 Copyright (c) Steve Scherf et al.
# Submitted via: Grip 2.96
# 
DISCID=e20bb910
DTITLE=Instrumental - The Sound Of The Wild West
DYEAR=1900
DGENRE=
TTITLE0=Spiel mir das Lied vom Tod
TTITLE1=Die Glorreichen Sieben
TTITLE2=Bonanza
TTITLE3=The Man Who Shoot Liberty Valence
TTITLE4=Hang'Em High
TTITLE5=High Chaparra
TTITLE6=Für eine Handvoll Dollar
TTITLE7=Shanandoah
TTITLE8=Red River Valley
TTITLE9=High Noon
TTITLE10=The Big Country
TTITLE11=For A Few Dollars More
TTITLE12=The Hanging Tree
TTITLE13=Streets Of Laredo
TTITLE14=The Good, The Bad And The Ugly
TTITLE15=Das Lied vom Tod
EXTD=
EXTT0=
EXTT1=
EXTT2=
EXTT3=
EXTT4=
EXTT5=
EXTT6=
EXTT7=
EXTT8=
EXTT9=
EXTT10=
EXTT11=
EXTT12=
EXTT13=
EXTT14=
EXTT15=
PLAYORDER=
